# AST/ASF file generated using VICON BodyLanguage
# -----------------------------------------------
:version 1.10
:name VICON
:units
  mass 1.0
  length 0.45
  angle deg
:documentation
   .ast/.asf automatically generated from VICON data using
   VICON BodyBuilder and BodyLanguage model FoxedUp or BRILLIANT.MOD
:root
   order TX TY TZ RX RY RZ
   axis XYZ
   position 0 0 0  
   orientation 0 0 0 
:bonedata
  begin
     id 1 
     name lhipjoint
     direction 0.576517 -0.752066 0.319413 
     length 2.45433 
     axis 0 0 0  XYZ
  end
  begin
     id 2 
     name lfemur
     direction 0.34202 -0.939693 0  
     length 7.54459  
     axis 0 0 20  XYZ
    dof rx ry rz
    limits (-160.0 20.0)
           (-70.0 70.0)
           (-60.0 70.0)
  end
  begin
     id 3 
     name ltibia
     direction 0.34202 -0.939693 0   
     length 7.73986   
     axis 0 0 20   XYZ
    dof rx
    limits (-10.0 170.0)
  end
  begin
     id 4 
     name lfoot
     direction 0.090693 -0.249177 0.964202   
     length 2.28437   
     axis -90 7.62852e-016 20   XYZ
    dof rx rz
    limits (-45.0 90.0)
           (-70.0 20.0)
  end
  begin
     id 5 
     name ltoes
     direction 1.5356e-011 -4.21928e-011 1   
     length 1.14243   
     axis -90 7.62852e-016 20   XYZ
    dof rx
    limits (-90.0 20.0)
  end
  begin
     id 6 
     name rhipjoint
     direction -0.573937 -0.753736 0.320122   
     length 2.44889  
     axis 0 0 0  XYZ 
  end
  begin
     id 7 
     name rfemur
     direction -0.34202 -0.939693 0   
     length 7.50166   
     axis 0 0 -20   XYZ
    dof rx ry rz
    limits (-160.0 20.0)
           (-70.0 70.0)
           (-70.0 60.0)
  end
  begin
     id 8 
     name rtibia
     direction -0.34202 -0.939693 0   
     length 7.54266   
     axis 0 0 -20   XYZ
    dof rx
    limits (-10.0 170.0)
 end
 begin
     id 9 
     name rfoot
     direction -0.114017 -0.31326 0.942798   
     length 2.34212  
     axis -90 -7.62852e-016 -20   XYZ
    dof rx rz
    limits (-45.0 90.0)
           (-20.0 70.0)
  end
  begin
     id 10 
     name rtoes
     direction -1.53557e-011 -4.21867e-011 1   
     length 1.16246   
     axis -90 -7.62852e-016 -20   XYZ
    dof rx
    limits (-90.0 20.0)
  end
  begin
     id 11 
     name lowerback
     direction -0.0228371 0.999155 -0.034167   
     length 2.0537   
     axis 0 0 0   XYZ
    dof rx ry rz
    limits (-20.0 45.0)
           (-30.0 30.0)
           (-30.0 30.0)
  end
  begin
     id 12 
     name upperback
     direction 0.0198981 0.999794 0.00389455   
     length 2.05302   
     axis 0 0 0   XYZ
    dof rx ry rz
    limits (-20.0 45.0)
           (-30.0 30.0)
           (-30.0 30.0)
  end
  begin
     id 13 
     name thorax
     direction 0.0304566 0.99935 0.0192987   
     length 2.05315   
     axis 0 0 0   XYZ
    dof rx ry rz
    limits (-20.0 45.0)
           (-30.0 30.0)
           (-30.0 30.0)
  end
  begin
     id 14 
     name lowerneck
     direction -0.0196762 0.99417 0.106017   
     length 1.82056   
     axis 0 0 0   XYZ
    dof rx ry rz
    limits (-20.0 45.0)
           (-30.0 30.0)
           (-30.0 30.0)
  end
  begin
     id 15 
     name upperneck
     direction 0.00517787 0.9802 -0.197944   
     length 1.83835   
     axis 0 0 0   XYZ
    dof rx ry rz
    limits (-20.0 45.0)
           (-30.0 30.0)
           (-30.0 30.0)
  end
  begin
     id 16
     name head
     direction 0.00211419 0.996945 -0.078081  
     length 1.85629  
     axis 0 0 0   XYZ
    dof rx ry rz
    limits (-20.0 45.0)
           (-30.0 30.0)
           (-30.0 30.0)
  end
  begin
     id 17 
     name lclavicle
     direction 0.930001 0.365811 -0.0357824  
     length 3.81961  
     axis 0 0 0   XYZ
    dof ry rz
    limits (-20.0 10.0)
           (0.0 20.0)
  end
  begin
     id 18 
     name lhumerus
     direction 1 -4.48968e-011 -3.06644e-027   
     length 5.14507   
     axis 180 -30 -90   XYZ
    dof rx ry rz
    limits (-60.0 90.0)
           (-90.0 90.0)
           (-90.0 90.0)
  end
  begin
     id 19
     name lradius
     direction 1 -4.48965e-011 9.06925e-028   
     length 3.50646   
     axis 180 -30 -90   XYZ
    dof rx
    limits (-10.0 170.0)
  end
  begin
     id 20
     name lwrist
     direction 1 -4.48957e-011 1.03922e-027   
     length 1.75323   
     axis -2.56395e-016 90 90   XYZ
    dof ry
    limits (-180.0 0.0)
 end
  begin
     id 21 
     name lhand
     direction 1 -4.48967e-011 2.08017e-027   
     length 0.629969   
     axis -1.32723e-015 90 90   XYZ
    dof rx rz
    limits (-90.0 90.0)
           (-45.0 45.0)
  end
  begin
     id 22 
     name lfingers
     direction 1 -4.49089e-011 4.20095e-027   
     length 0.507897   
     axis -2.6545e-015 90 90   XYZ
    dof rx
    limits (0.0 90.0)
  end
  begin
     id 23
     name lthumb
     direction 0.707107 -6.35001e-011 0.707107   
     length 0.729241   
     axis -90 45 5.05613e-014   XYZ
    dof rx rz
    limits (-45.0 45.0)
           (-45.0 45.0)
  end
  begin
     id 24 
     name rclavicle
     direction -0.881882 0.464123 -0.0829113   
     length 3.47515  
     axis 0 0 0   XYZ 
    dof ry rz
    limits (-10.0 20.0)
           (-20.0 0.0)
  end
  begin
     id 25 
     name rhumerus
     direction -1 -4.48961e-011 -1.55672e-027  
     length 5.232   
     axis 180 30 90   XYZ
    dof rx ry rz
    limits (-90.0 60.0)
           (-90.0 90.0)
           (-90.0 90.0)
  end
  begin
     id 26 
     name rradius
     direction -1 -4.48963e-011 6.18178e-029   
     length 3.65641   
     axis 180 30 90   XYZ
    dof rx
    limits (-10.0 170.0)
  end
  begin
     id 27 
     name rwrist
     direction -1 -4.48982e-011 1.04136e-027   
     length 1.8282   
     axis -2.56395e-016 -90 -90   XYZ
    dof ry
    limits (-180.0 0.0)
  end
  begin
     id 28
     name rhand
     direction -1 -4.48929e-011 2.07378e-027   
     length 0.656807   
     axis -1.32723e-015 -90 -90   XYZ
    dof rx rz
    limits (-90.0 90.0)
           (-45.0 45.0)
  end
  begin
     id 29
     name rfingers
     direction -1 -4.489e-011 4.13816e-027   
     length 0.529535   
     axis -2.6545e-015 -90 -90   XYZ
    dof rx
    limits (0.0 90.0)
  end
  begin
     id 30
     name rthumb
     direction -0.707107 -6.34843e-011 0.707107   
     length 0.760309   
     axis -90 -45 -5.05613e-014   XYZ
    dof rx rz
    limits (-45.0 45.0)
           (-45.0 45.0)
  end
:hierarchy
  begin
    root lhipjoint rhipjoint lowerback
    lhipjoint lfemur
    lfemur ltibia
    ltibia lfoot
    lfoot ltoes
    rhipjoint rfemur
    rfemur rtibia
    rtibia rfoot
    rfoot rtoes
    lowerback upperback
    upperback thorax
    thorax lowerneck lclavicle rclavicle
    lowerneck upperneck
    upperneck head
    lclavicle lhumerus
    lhumerus lradius
    lradius lwrist
    lwrist lhand lthumb
    lhand lfingers
    rclavicle rhumerus
    rhumerus rradius
    rradius rwrist
    rwrist rhand rthumb
    rhand rfingers
  end

#!OML:ASF H:\ManfredETheater\Project 1\Capture day 1\Session 1\subject.ASF
:FULLY-SPECIFIED
:DEGREES
31
root 13.9473 16.3209 -28.3401 21.1787 3.29932 18.2119
lowerback 14.3048 -3.50339 -8.11839
upperback 0.0494173 -6.24622 -3.33759
thorax -7.49104 -2.78237 2.23765
lowerneck -16.2006 -8.36035 -10.205
upperneck 2.87178 -9.88253 9.38587
head 4.42515 -4.52175 3.64924
rclavicle 6.61953e-014 1.94809e-014
rhumerus -79.7986 0.45528 -83.1364
rradius 64.014
rwrist -15.8704
rhand -23.5485 10.8089
rfingers 7.12502
rthumb 2.91339 -19.1509
lclavicle 6.61953e-014 1.94809e-014
lhumerus -27.626 -23.2541 98.4718
lradius 136.144
lwrist 17.4166
lhand -19.6627 -12.3393
lfingers 7.12502
lthumb 6.66542 17.5358
rfemur -71.1207 -9.26855 19.6061
rtibia 46.3123
rfoot -2.46548 -8.35073
rtoes -24.2384
lfemur 6.82676 -8.44913 -29.164
ltibia 34.8331
lfoot 13.255 -13.8014
ltoes -6.34808
32
root 13.8983 16.3 -27.7538 20.7789 3.39386 18.8933
lowerback 14.258 -3.53384 -8.65428
upperback 0.156343 -6.36497 -3.42932
thorax -7.293 -2.8329 2.44528
lowerneck -15.9318 -8.47351 -10.4151
upperneck 2.94832 -10.0291 9.45129
head 4.43513 -4.59969 3.69223
rclavicle 7.03698e-014 5.92378e-014
rhumerus -78.9413 0.121478 -82.8591
rradius 63.7557
rwrist -16.3664
rhand -23.773 10.52
rfingers 7.12502
rthumb 2.69659 -19.4427
lclavicle 7.03698e-014 5.92378e-014
lhumerus -28.6252 -22.1592 98.6599
lradius 134.785
lwrist 17.4567
lhand -20.0168 -12.0389
lfingers 7.12502
lthumb 6.32361 17.8467
rfemur -70.3493 -10.6578 20.7817
rtibia 43.1139
rfoot -0.36314 -8.35487
rtoes -20.6463
lfemur 7.21827 -9.09888 -29.4926
ltibia 36.9333
lfoot 12.3391 -13.3438
ltoes -6.65277
33
root 13.8464 16.2689 -27.1708 20.4035 3.59661 19.5426
lowerback 14.2234 -3.55166 -9.16877
upperback 0.245114 -6.4629 -3.49152
thorax -7.12077 -2.87309 2.66923
lowerneck -15.5946 -8.60928 -10.6453
upperneck 2.99163 -10.2101 9.53569
head 4.43003 -4.69593 3.74302
rclavicle 3.24019e-014 1.82882e-014
rhumerus -77.9739 -0.263817 -82.5932
rradius 63.4584
rwrist -16.9885
rhand -24.0519 10.1162
rfingers 7.12502
rthumb 2.42719 -19.8497
lclavicle 3.24019e-014 1.82882e-014
lhumerus -29.6699 -20.9875 98.9216
lradius 133.07
lwrist 17.4292
lhand -20.4294 -11.681
lfingers 7.12502
lthumb 5.92525 18.2161
rfemur -69.7885 -12.2339 22.2498
rtibia 40.8473
rfoot 1.36355 -8.38448
rtoes -15.8725
lfemur 7.19508 -9.55107 -29.6189
ltibia 39.6081
lfoot 11.5172 -12.8841
ltoes -7.22235
34
root 13.7904 16.231 -26.5915 20.0247 3.87269 20.0991
lowerback 14.2321 -3.54595 -9.62382
upperback 0.320502 -6.52355 -3.523
thorax -6.99262 -2.89503 2.89013
lowerneck -15.2264 -8.76679 -10.8748
upperneck 3.03234 -10.4265 9.63558
head 4.4242 -4.80976 3.7957
rclavicle 4.41302e-014 5.725e-014
rhumerus -76.8902 -0.696649 -82.3554
rradius 63.094
rwrist -17.7022
rhand -24.361 9.59836
rfingers 7.12502
rthumb 2.12874 -20.3708
lclavicle 4.41302e-014 5.725e-014
lhumerus -30.7322 -19.7627 99.2066
lradius 131.043
lwrist 17.3453
lhand -20.8422 -11.3255
lfingers 7.12502
lthumb 5.52675 18.5825
rfemur -69.4241 -13.8685 23.9437
rtibia 39.654
rfoot 2.47893 -8.41172
rtoes -9.72113
lfemur 6.80711 -9.82568 -29.4998
ltibia 42.7399
lfoot 10.9273 -12.5571
ltoes -7.64798
35
root 13.7289 16.1894 -26.0172 19.6116 4.17488 20.4983
lowerback 14.3206 -3.5041 -9.98208
upperback 0.38471 -6.52974 -3.52085
thorax -6.93311 -2.88975 3.09168
lowerneck -14.8451 -8.94049 -11.085
upperneck 3.07671 -10.6729 9.74927
head 4.421 -4.93789 3.8469
rclavicle 1.07344e-014 3.02153e-014
rhumerus -75.6822 -1.16595 -82.1604
rradius 62.6353
rwrist -18.4802
rhand -24.6659 9.00496
rfingers 7.12502
rthumb 1.83422 -20.9669
lclavicle 1.07344e-014 3.02153e-014
lhumerus -31.8017 -18.4956 99.4675
lradius 128.752
lwrist 17.2242
lhand -21.2022 -10.9804
lfingers 7.12502
lthumb 5.17911 18.9363
rfemur -69.166 -15.3649 25.6809
rtibia 39.5749
rfoot 2.73694 -8.68365
rtoes -2.69444
lfemur 6.10189 -9.92287 -29.1027
ltibia 46.2194
lfoot 10.5716 -12.4105
ltoes -7.69912
36
root 13.6615 16.1452 -25.4493 19.1322 4.45168 20.6924
lowerback 14.5161 -3.41497 -10.2126
upperback 0.447661 -6.46563 -3.488
thorax -6.95321 -2.84976 3.25367
lowerneck -14.4555 -9.12465 -11.2641
upperneck 3.10338 -10.9425 9.88289
head 4.41376 -5.0765 3.89772
rclavicle -1.27222e-014 -3.97569e-015
rhumerus -74.3297 -1.66212 -82.0238
rradius 62.0609
rwrist -19.3204
rhand -24.9259 8.37118
rfingers 7.12502
rthumb 1.58317 -21.6027
lclavicle -1.27222e-014 -3.97569e-015
lhumerus -32.8445 -17.1986 99.6502
lradius 126.233
lwrist 17.1059
lhand -21.4891 -10.6675
lfingers 7.12502
lthumb 4.90207 19.2558
rfemur -68.8479 -16.5236 27.2243
rtibia 40.5177
rfoot 2.12416 -9.42417
rtoes 4.61443
lfemur 5.13519 -9.84005 -28.4174
ltibia 49.9563
lfoot 10.338 -12.3958
ltoes -7.35728
37
root 13.5882 16.0983 -24.889 18.5491 4.64438 20.6281
lowerback 14.8399 -3.26622 -10.2885
upperback 0.520041 -6.31185 -3.41788
thorax -7.05807 -2.7662 3.3659
lowerneck -14.0435 -9.31373 -11.4148
upperneck 3.07509 -11.2267 10.0427
head 4.38857 -5.22187 3.95262
rclavicle -6.36111e-015 3.97569e-014
rhumerus -72.8079 -2.16554 -81.9551
rradius 61.3486
rwrist -20.2264
rhand -25.1269 7.72825
rfingers 7.12502
rthumb 1.38904 -22.247
lclavicle -6.36111e-015 3.97569e-014
lhumerus -33.8376 -15.8626 99.7188
lradius 123.518
lwrist 17.0386
lhand -21.6608 -10.3999
lfingers 7.12502
lthumb 4.73635 19.5272
rfemur -68.2459 -17.1932 28.4417
rtibia 42.1889
rfoot 0.776343 -10.7147
rtoes 11.2192
lfemur 4 -9.54862 -27.4217
ltibia 53.8126
lfoot 10.1374 -12.4451
ltoes -6.77484
38
root 13.5105 16.0481 -24.3381 17.8541 4.71104 20.2569
lowerback 15.2842 -3.05617 -10.1527
upperback 0.610533 -6.05288 -3.30622
thorax -7.24053 -2.63435 3.39601
lowerneck -13.6037 -9.50278 -11.5489
upperneck 2.95722 -11.5159 10.2435
head 4.33471 -5.36932 4.02002
rclavicle 3.93594e-014 -3.4191e-014
rhumerus -71.089 -2.66412 -81.9628
rradius 60.4859
rwrist -21.2073
rhand -25.2763 7.1273
rfingers 7.12502
rthumb 1.24474 -22.8488
lclavicle 3.93594e-014 -3.4191e-014
lhumerus -34.7637 -14.4954 99.6558
lradius 120.627
lwrist 17.0185
lhand -21.7451 -10.1851
lfingers 7.12502
lthumb 4.65487 19.7437
rfemur -67.2922 -17.3063 29.3404
rtibia 44.4037
rfoot -1.18967 -12.4839
rtoes 16.3378
lfemur 2.70389 -9.03425 -26.0943
ltibia 57.7926
lfoot 9.78009 -12.4923
ltoes -6.37397
39
root 13.4221 16.0217 -23.7917 17.0346 4.6455 19.5251
lowerback 15.8483 -2.79708 -9.73287
upperback 0.729937 -5.68606 -3.14066
thorax -7.49164 -2.45677 3.3123
lowerneck -13.1191 -9.68424 -11.6726
upperneck 2.71633 -11.7982 10.4893
head 4.23888 -5.51398 4.10487
rclavicle -5.88403e-014 -2.8625e-014
rhumerus -69.1532 -3.13999 -82.0544
rradius 59.4758
rwrist -22.2498
rhand -25.4082 6.58687
rfingers 7.12502
rthumb 1.11736 -23.3899
lclavicle -5.88403e-014 -2.8625e-014
lhumerus -35.61 -13.0878 99.4517
lradius 117.572
lwrist 17.0642
lhand -21.7497 -10.0172
lfingers 7.12502
lthumb 4.65044 19.9118
rfemur -65.7957 -16.9097 30.0551
rtibia 46.816
rfoot -3.67468 -14.5614
rtoes 19.5072
lfemur 1.30753 -8.29806 -24.3727
ltibia 61.7405
lfoot 9.22982 -12.4637
ltoes -6.42175
40
root 13.3402 15.9695 -23.2612 16.1143 4.44576 18.4144
lowerback 16.5053 -2.51182 -8.9802
upperback 0.884872 -5.22099 -2.91374
thorax -7.7858 -2.24246 3.08921
lowerneck -12.6189 -9.85117 -11.7872
upperneck 2.35752 -12.0591 10.7688
head 4.10532 -5.6489 4.20466
rclavicle 3.89618e-014 7.95139e-015
rhumerus -66.9822 -3.56254 -82.2379
rradius 58.3533
rwrist -23.291
rhand -25.577 6.10654
rfingers 7.12502
rthumb 0.954294 -23.8711
lclavicle 3.89618e-014 7.95139e-015
lhumerus -36.364 -11.6315 99.1103
lradius 114.356
lwrist 17.1725
lhand -21.7589 -9.90186
lfingers 7.12502
lthumb 4.64157 20.0273
rfemur -64.0529 -16.0619 30.808
rtibia 49.3071
rfoot -6.35522 -16.7061
rtoes 20.8858
lfemur -0.206191 -7.34775 -22.2501
ltibia 65.7619
lfoot 8.30327 -12.3569
ltoes -6.92731
41
root 13.2584 15.9197 -22.7406 15.1698 4.14198 17.0321
lowerback 17.1837 -2.23604 -7.96805
upperback 1.07077 -4.7037 -2.64301
thorax -8.07077 -2.01483 2.74684
lowerneck -12.1233 -9.99416 -11.8804
upperneck 1.89331 -12.2836 11.0579
head 3.93712 -5.76725 4.31091
rclavicle -1.03368e-014 1.82882e-014
rhumerus -64.5789 -3.89713 -82.5233
rradius 57.17
rwrist -24.2105
rhand -25.8338 5.7234
rfingers 7.12502
rthumb 0.70623 -24.2552
lclavicle -1.03368e-014 1.82882e-014
lhumerus -37.0346 -10.1254 98.6375
lradius 111.007
lwrist 17.3408
lhand -21.8186 -9.79693
lfingers 7.12502
lthumb 4.58393 20.1335
rfemur -62.0469 -14.9505 31.6705
rtibia 51.6247
rfoot -9.09999 -18.6729
rtoes 20.7155
lfemur -1.8774 -6.25736 -19.8167
ltibia 69.7144
lfoot 7.10823 -12.2029
ltoes -7.65303
42
root 13.177 15.8742 -22.2294 14.2833 3.78307 15.5263
lowerback 17.8405 -1.99964 -6.83059
upperback 1.2607 -4.19381 -2.34326
thorax -8.33181 -1.79809 2.35247
lowerneck -11.6604 -10.1066 -11.9482
upperneck 1.37435 -12.4597 11.318
head 3.74968 -5.86353 4.41051
rclavicle 1.35174e-014 1.59028e-015
rhumerus -62.0016 -4.08077 -82.907
rradius 56.0252
rwrist -24.8455
rhand -26.2139 5.40671
rfingers 7.12502
rthumb 0.33914 -24.5728
lclavicle 1.35174e-014 1.59028e-015
lhumerus -37.6658 -8.55496 98.057
lradius 107.551
lwrist 17.5337
lhand -21.9593 -9.76945
lfingers 7.12502
lthumb 4.44804 20.1638
rfemur -59.9233 -13.758 32.6456
rtibia 53.71
rfoot -11.819 -20.3937
rtoes 19.4582
lfemur -3.78613 -5.11783 -17.2276
ltibia 73.5772
lfoot 5.72807 -12.0248
ltoes -8.22677
43
root 13.096 15.8344 -21.7265 13.5349 3.42018 14.0448
lowerback 18.4042 -1.82417 -5.70118
upperback 1.43538 -3.74342 -2.03903
thorax -8.53824 -1.6132 1.96482
lowerneck -11.2522 -10.1846 -11.9806
upperneck 0.848704 -12.5827 11.5196
head 3.55736 -5.93497 4.49154
rclavicle 8.34896e-015 4.6118e-014
rhumerus -59.3273 -4.07171 -83.3852
rradius 55.0496
rwrist -25.0226
rhand -26.6677 5.21205
rfingers 7.12502
rthumb -0.0991745 -24.7677
lclavicle 8.34896e-015 4.6118e-014
lhumerus -38.2877 -6.94171 97.382
lradius 104.035
lwrist 17.706
lhand -22.1903 -9.84665
lfingers 7.12502
lthumb 4.22504 20.0912
rfemur -57.7697 -12.6636 33.7084
rtibia 55.4398
rfoot -14.3883 -21.9484
rtoes 17.5873
lfemur -6.00971 -4.00392 -14.6566
ltibia 77.2608
lfoot 4.25675 -11.8
ltoes -8.63912
44
root 13.0144 15.8006 -21.2306 12.9672 3.11478 12.7311
lowerback 18.8308 -1.71837 -4.72138
upperback 1.58129 -3.39714 -1.75186
thorax -8.6745 -1.47595 1.65428
lowerneck -10.9248 -10.2323 -11.9681
upperneck 0.37279 -12.6587 11.6321
head 3.37856 -5.98375 4.54012
rclavicle 1.90833e-014 1.59028e-015
rhumerus -56.65 -3.83692 -83.945
rradius 54.3939
rwrist -24.6433
rhand -27.1357 5.14436
rfingers 7.12502
rthumb -0.551154 -24.8347
lclavicle 1.90833e-014 1.59028e-015
lhumerus -38.9467 -5.3299 96.6409
lradius 100.547
lwrist 17.7771
lhand -22.5212 -10.0405
lfingers 7.12502
lthumb 3.90548 19.9035
rfemur -55.6532 -11.8212 34.7735
rtibia 56.8045
rfoot -16.7549 -23.2809
rtoes 15.7286
lfemur -8.60402 -2.98391 -12.2887
ltibia 80.7153
lfoot 2.75092 -11.4912
ltoes -8.97667
45
root 12.9306 15.774 -20.7398 12.5912 2.90745 11.674
lowerback 19.1077 -1.67617 -3.98763
upperback 1.68052 -3.17488 -1.49252
thorax -8.75416 -1.39089 1.47399
lowerneck -10.6715 -10.2553 -11.9187
upperneck -0.0114945 -12.6979 11.6459
head 3.22534 -6.01451 4.55256
rclavicle 4.69132e-014 5.56597e-015
rhumerus -54.0981 -3.35466 -84.567
rradius 54.2296
rwrist -23.7303
rhand -27.5521 5.21338
rfingers 7.12502
rthumb -0.953288 -24.7642
lclavicle 4.69132e-014 5.56597e-015
lhumerus -39.708 -3.78765 95.8732
lradius 97.2107
lwrist 17.6425
lhand -22.8871 -10.325
lfingers 7.12502
lthumb 3.55214 19.6252
rfemur -53.6045 -11.3038 35.7517
rtibia 57.815
rfoot -18.9988 -24.3958
rtoes 13.919
lfemur -11.5824 -2.09812 -10.2628
ltibia 83.8817
lfoot 1.27301 -11.0538
ltoes -9.15362
